:SAMPLES-PER-SECOND 30
:FULLY-SPECIFIED
:DEGREES
372
root  38.7401 36.935 2.44098 -0.0596466 -74.3245 -3.97089
RightUpLeg  -30.1055 -8.37272 8.8781
RightLeg  25.6748 -7.15081 -3.95741
RightFoot  3.40997 1.17193 -8.86809
RightToes  0.00048216 0.542163 -0.142577
Spine  10.8684 -3.42122 5.85734
Spine1  8.98175 -4.10033 3.28646
HEad  -8.11529 5.0805 -8.02981
LeftShoulder1  9.16376 -14.2895 -44.8759
LeftArm  -11.7476 12.2307 -21.8404
LeftForeArm  37.2538 -76.4638 -52.3928
LeftHand  -0.25398 0.0180481 5.50724
RightShoulder  4.4163 8.01263 32.4055
RightArm  -17.8889 -32.5902 29.8972
RightForeArm  88.2345 73.4184 134.485
RightHand  0.339246 -18.0715 -4.15053
LeftUpLeg  23.5739 16.6118 3.68475
LeftLeg  26.7608 -8.99396 -4.42072
LeftFoot  -10.372 0.134619 -6.59535
LeftToes  1.06246e-005 4.65855e-005 -8.18505e-006
373
root  37.1041 36.962 2.87692 4.08911 -73.1552 -7.71352
RightUpLeg  -30.1173 -7.63913 9.50843
RightLeg  30.05 -8.60491 -5.57882
RightFoot  0.345776 1.00402 -9.75782
RightToes  0.00048216 0.542163 -0.142577
Spine  11.1093 -3.24615 8.07286
Spine1  8.75964 -3.45227 3.3106
HEad  -8.06347 4.49107 -7.32141
LeftShoulder1  9.23783 -14.2066 -45.4734
LeftArm  -13.1344 15.3961 -20.6125
LeftForeArm  38.6083 -76.7636 -54.3604
LeftHand  -0.25398 0.0180481 5.50724
RightShoulder  4.56483 8.2749 32.8141
RightArm  -15.6016 -30.5434 29.5231
RightForeArm  84.0914 74.2578 131.034
RightHand  0.564983 -17.9198 -6.16707
LeftUpLeg  16.5069 13.8619 4.90721
LeftLeg  39.1998 -7.16875 -5.81629
LeftFoot  3.57916 1.27986 -9.89252
LeftToes  1.06246e-005 4.65855e-005 -8.18505e-006
374
root  35.6561 36.9658 3.19572 8.92996 -70.9339 -12.8394
RightUpLeg  -28.9323 -7.975 11.1258
RightLeg  32.9602 -9.70844 -6.96913
RightFoot  -3.32972 0.678008 -9.92832
RightToes  0.00048216 0.542163 -0.142577
Spine  12.0816 -3.43534 10.9841
Spine1  8.78955 -2.92873 3.55028
HEad  -7.54886 3.11077 -6.29436
LeftShoulder1  9.16324 -14.0486 -45.5133
LeftArm  -14.245 17.4276 -19.5674
LeftForeArm  39.8576 -76.9841 -55.8634
LeftHand  -0.25398 0.0180481 5.50724
RightShoulder  4.6124 8.29316 33.1563
RightArm  -13.3119 -28.0111 29.4798
RightForeArm  78.0565 75.171 126.374
RightHand  0.785928 -19.0681 -7.51453
LeftUpLeg  7.82493 9.49154 6.42681
LeftLeg  52.0199 -4.4443 -5.61034
LeftFoot  15.7253 2.79355 -12.0548
LeftToes  1.06246e-005 4.65855e-005 -8.18505e-006
375
root  34.1573 37.2085 3.55786 10.5184 -68.8957 -15.9623
RightUpLeg  -25.0977 -8.76469 12.0709
RightLeg  33.7989 -10.7794 -7.9283
RightFoot  -6.40252 0.348824 -9.03707
RightToes  0.00048216 0.542163 -0.142577
Spine  14.1495 -3.54462 13.8108
Spine1  8.46669 -2.03962 3.04709
HEad  -6.99628 0.764015 -5.08438
LeftShoulder1  9.08115 -13.9551 -45.3411
LeftArm  -15.1977 18.7076 -18.7548
LeftForeArm  40.8649 -77.1434 -57.0047
LeftHand  -0.25398 0.0180481 5.50724
RightShoulder  4.62078 8.2273 33.4451
RightArm  -11.3125 -25.5295 29.6626
RightForeArm  70.5411 76.1169 120.162
RightHand  0.953756 -20.5384 -8.09075
LeftUpLeg  0.653305 5.16685 7.69866
LeftLeg  62.1472 -2.26566 -4.08057
LeftFoot  19.0312 3.23893 -12.3381
LeftToes  1.06246e-005 4.65855e-005 -8.18505e-006
376
root  32.4691 37.7662 3.99399 8.25629 -68.3105 -15.3416
RightUpLeg  -19.2411 -9.7245 11.3476
RightLeg  32.17 -11.105 -7.70267
RightFoot  -8.61479 0.131609 -8.00236
RightToes  0.00048216 0.542163 -0.142577
Spine  15.8992 -3.06419 14.9766
Spine1  8.01648 -0.728483 1.7409
HEad  -6.2557 -1.63333 -3.95689
LeftShoulder1  9.04072 -13.8919 -45.3017
LeftArm  -16.3067 20.2395 -17.9464
LeftForeArm  42.5994 -77.4051 -59.0685
LeftHand  -0.25398 0.0180481 5.50724
RightShoulder  4.68908 8.3193 33.7143
RightArm  -9.1313 -23.1979 29.8901
RightForeArm  60.6053 77.0223 111.635
RightHand  1.08964 -20.1851 -9.30805
LeftUpLeg  -4.93742 2.60227 7.61224
LeftLeg  67.8717 -1.00893 -2.02441
LeftFoot  15.7732 2.25188 -9.67559
LeftToes  1.06246e-005 4.65855e-005 -8.18505e-006
377
root  30.7037 38.3197 4.46252 6.64946 -68.8506 -13.2414
RightUpLeg  -15.0358 -10.9834 10.1846
RightLeg  29.5979 -9.82691 -6.27164
RightFoot  -10.2394 0.00500064 -7.78015
RightToes  0.00048216 0.542163 -0.142577
Spine  14.5498 -1.8177 15.4563
Spine1  8.55896 0.838114 0.00680829
HEad  -5.01403 -3.44332 -3.17923
LeftShoulder1  8.95006 -13.7521 -45.2068
LeftArm  -17.5706 22.5721 -17.074
LeftForeArm  45.6732 -77.8026 -62.6607
LeftHand  -0.25398 0.0180481 5.50724
RightShoulder  4.78099 8.4695 33.9829
RightArm  -6.50315 -21.0297 30.2169
RightForeArm  49.539 77.6045 102.215
RightHand  1.18636 -18.3454 -11.3242
LeftUpLeg  -11.4724 1.6456 6.77963
LeftLeg  69.4406 -0.203804 0.195505
LeftFoot  11.4351 1.19548 -6.30469
LeftToes  1.06246e-005 4.65855e-005 -8.18505e-006
378
root  28.8565 38.7579 5.00243 8.25186 -69.4287 -11.8631
RightUpLeg  -13.4138 -12.4729 9.43153
RightLeg  26.8714 -7.79945 -4.18644
RightFoot  -11.6247 -0.0975332 -7.88538
RightToes  0.00048216 0.542163 -0.142577
Spine  9.0387 -0.057084 16.4767
Spine1  10.6845 2.36723 -2.00094
HEad  -3.44764 -4.77686 -2.77831
LeftShoulder1  8.77339 -13.5388 -44.8547
LeftArm  -18.7801 25.6309 -16.1234
LeftForeArm  50.2109 -78.2608 -67.8528
LeftHand  -0.25398 0.0180481 5.50724
RightShoulder  4.79374 8.44367 34.1739
RightArm  -3.79606 -19.0874 30.8821
RightForeArm  40.9453 77.8096 94.8021
RightHand  1.23789 -17.4375 -12.5799
LeftUpLeg  -19.8425 1.10434 6.19504
LeftLeg  67.9517 0.737276 2.74684
LeftFoot  8.77204 0.587369 -3.62275
LeftToes  1.06246e-005 4.65855e-005 -8.18505e-006
379
root  26.9555 39.1573 5.58673 9.79268 -69.7196 -10.5394
RightUpLeg  -11.1394 -11.9253 8.03732
RightLeg  23.5361 -8.14999 -2.02094
RightFoot  -12.7844 -0.179296 -7.41875
RightToes  0.00048216 0.542163 -0.142577
Spine  3.25481 1.54196 17.2033
Spine1  13.078 3.57794 -3.95311
HEad  -2.13595 -5.76391 -2.52401
LeftShoulder1  8.5581 -13.281 -44.4066
LeftArm  -19.9715 29.1785 -15.0216
LeftForeArm  56.4625 -78.6944 -75.0513
LeftHand  -0.25398 0.0180481 5.50724
RightShoulder  4.73961 8.30834 34.1749
RightArm  -1.35549 -17.2074 32.0361
RightForeArm  35.7731 77.8454 89.8383
RightHand  1.291 -17.8893 -12.6327
LeftUpLeg  -27.0436 0.690632 5.71816
LeftLeg  63.5751 2.403 5.82621
LeftFoot  6.26397 0.188744 -1.4655
LeftToes  1.06246e-005 4.65855e-005 -8.18505e-006
380
root  25.144 39.4139 6.11819 8.72055 -70.5499 -8.64723
RightUpLeg  -6.92855 -9.70197 6.11272
RightLeg  20.4169 -9.80557 -0.349017
RightFoot  -13.9442 -0.250834 -6.86648
RightToes  0.00048216 0.542163 -0.142577
Spine  1.44051 2.49704 17.0097
Spine1  13.7013 4.57597 -5.40996
HEad  -1.37637 -6.24401 -2.23261
LeftShoulder1  8.29538 -12.931 -43.9364
LeftArm  -21.4638 33.001 -13.9944
LeftForeArm  64.2267 -78.9606 -84.0722
LeftHand  -0.25398 0.0180481 5.50724
RightShoulder  4.72243 8.31182 34.0197
RightArm  0.919112 -15.1057 33.5906
RightForeArm  31.9437 77.818 85.8278
RightHand  1.30726 -17.7274 -12.947
LeftUpLeg  -30.4667 1.63152 4.96374
LeftLeg  55.9015 4.39565 7.48011
LeftFoot  3.27816 0.00650416 -0.21864
LeftToes  1.06246e-005 4.65855e-005 -8.18505e-006
381
root  23.385 39.4376 6.60651 8.63966 -71.9468 -8.57872
RightUpLeg  -2.61764 -7.70593 5.24453
RightLeg  18.1775 -10.4536 0.832993
RightFoot  -15.2231 -0.341651 -7.02315
RightToes  0.00048216 0.542163 -0.142577
Spine  1.43253 3.22676 17.103
Spine1  13.4282 5.52989 -6.55381
HEad  -0.98684 -6.32276 -1.87774
LeftShoulder1  7.94261 -12.4746 -43.2304
LeftArm  -23.3525 36.8459 -13.4802
LeftForeArm  72.2607 -78.9492 -93.3803
LeftHand  -0.25398 0.0180481 5.50724
RightShoulder  4.76697 8.46726 33.874
RightArm  3.22741 -12.788 35.288
RightForeArm  28.368 77.7412 82.3474
RightHand  1.28163 -16.306 -14.2619
LeftUpLeg  -31.4865 4.41214 4.45104
LeftLeg  45.1283 4.73858 5.57128
LeftFoot  1.01378 -0.0525591 0.426597
LeftToes  1.06246e-005 4.65855e-005 -8.18505e-006
382
root  21.6382 39.4053 7.06209 9.60292 -73.4716 -9.15297
RightUpLeg  1.33444 -6.43228 4.79565
RightLeg  15.4659 -9.96851 1.91015
RightFoot  -16.2227 -0.414495 -7.14962
RightToes  0.00048216 0.542163 -0.142577
Spine  1.07967 4.04943 17.0289
Spine1  13.3299 6.52341 -7.70022
HEad  -0.782315 -6.4867 -1.38965
LeftShoulder1  7.54727 -12.0066 -42.2594
LeftArm  -25.2022 40.4171 -13.4357
LeftForeArm  79.1854 -78.7054 -101.413
LeftHand  -0.25398 0.0180481 5.50724
RightShoulder  4.81776 8.5873 33.8986
RightArm  5.52412 -10.4635 36.8131
RightForeArm  25.7347 77.655 79.7696
RightHand  1.25585 -15.3629 -15.2221
LeftUpLeg  -31.6507 8.57528 3.23111
LeftLeg  31.4966 2.47077 2.30062
LeftFoot  -0.0552071 -0.0738673 0.744162
LeftToes  1.06246e-005 4.65855e-005 -8.18505e-006
383
root  19.9266 39.3833 7.51617 8.45659 -75.0486 -7.56693
RightUpLeg  5.39813 -6.34865 3.43574
RightLeg  12.4469 -8.13806 2.90233
RightFoot  -17.0535 -0.425737 -6.24306
RightToes  0.00048216 0.542163 -0.142577
Spine  0.911656 4.77657 16.1808
Spine1  13.5748 7.62944 -8.93396
HEad  -0.791003 -6.94181 -0.663073
LeftShoulder1  7.18581 -11.5845 -41.2936
LeftArm  -26.4969 43.422 -13.3806
LeftForeArm  84.1567 -78.364 -107.385
LeftHand  -0.25398 0.0180481 5.50724
RightShoulder  4.87938 8.65461 34.1818
RightArm  7.63664 -8.15959 37.9467
RightForeArm  23.72 77.5625 77.4106
RightHand  1.28871 -15.9081 -14.8447
LeftUpLeg  -30.241 11.7548 1.85502
LeftLeg  15.7506 3.25365 -0.1404
LeftFoot  -0.467589 -0.00415106 0.0674535
LeftToes  1.06246e-005 4.65855e-005 -8.18505e-006
384
root  18.1722 39.2047 8.06393 5.56703 -76.7852 -4.89154
RightUpLeg  9.25283 -7.38344 1.29297
RightLeg  11.7105 -5.0926 3.38225
RightFoot  -18.2177 -0.416996 -4.87731
RightToes  0.00048216 0.542163 -0.142577
Spine  1.59529 5.2781 15.5762
Spine1  13.821 8.81728 -10.2217
HEad  -0.939162 -7.407 0.151273
LeftShoulder1  6.84457 -11.1373 -40.4677
LeftArm  -27.2154 45.6301 -13.2001
LeftForeArm  86.7859 -78.0856 -110.865
LeftHand  -0.25398 0.0180481 5.50724
RightShoulder  5.00538 8.82281 34.6502
RightArm  9.46398 -5.86706 38.7381
RightForeArm  20.8397 77.3971 74.1975
RightHand  1.32408 -16.8529 -14.0182
LeftUpLeg  -26.482 7.79709 4.75788
LeftLeg  1.78832 16.61 -4.65667
LeftFoot  -1.34989 0.0110274 -0.00336829
LeftToes  1.06246e-005 4.65855e-005 -8.18505e-006
385
root  16.3569 38.9405 8.69658 2.46989 -77.9751 -2.28101
RightUpLeg  12.557 -9.07319 -0.998709
RightLeg  12.9648 -1.80637 3.31105
RightFoot  -18.9686 -0.380979 -3.78626
RightToes  0.00048216 0.542163 -0.142577
Spine  2.54737 5.51581 15.2694
Spine1  13.7963 9.67911 -11.3626
HEad  -0.991874 -7.77947 0.788488
LeftShoulder1  6.51665 -10.6628 -39.7579
LeftArm  -27.5962 46.9359 -13.111
LeftForeArm  87.1314 -77.9879 -111.776
LeftHand  -0.25398 0.0180481 5.50724
RightShoulder  5.15842 9.07589 35.0448
RightArm  10.9166 -3.97287 39.3767
RightForeArm  17.2551 77.1596 70.7635
RightHand  1.34237 -17.0486 -13.9755
LeftUpLeg  -24.3886 6.16895 4.84664
LeftLeg  -3.26778 25.7849 -7.89854
LeftFoot  -3.1552 -0.0649993 1.17312
LeftToes  1.06246e-005 4.65855e-005 -8.18505e-006
386
root  14.4641 38.6517 9.35428 0.046875 -77.407 0.355438
RightUpLeg  14.8458 -11.1568 -3.02306
RightLeg  15.07 0.763516 2.85516
RightFoot  -19.3931 -0.210992 -1.2375
RightToes  0.00048216 0.542163 -0.142577
Spine  2.49758 5.44445 14.2819
Spine1  13.6876 9.75856 -11.6558
HEad  -0.919391 -8.45048 1.40459
LeftShoulder1  6.31618 -10.3625 -39.3305
LeftArm  -27.5924 47.3665 -12.9489
LeftForeArm  85.543 -78.0715 -110.522
LeftHand  -0.25398 0.0180481 5.50724
RightShoulder  5.23776 9.2193 35.2033
RightArm  11.8076 -3.04933 39.831
RightForeArm  14.8238 76.984 68.7171
RightHand  1.35301 -16.6169 -14.5847
LeftUpLeg  -26.0642 7.7679 1.49701
LeftLeg  3.45758 23.7702 -5.08899
LeftFoot  -3.43726 -0.104549 1.80024
LeftToes  1.06246e-005 4.65855e-005 -8.18505e-006
